<?xml version="1.0" encoding="UTF-8" standalone="no"?>
<!-- Creator: CorelDRAW 2020 (64-Bit) -->

<svg
   xml:space="preserve"
   width="86.6986mm"
   height="86.6986mm"
   version="1.1"
   style="shape-rendering:geometricPrecision; text-rendering:geometricPrecision; image-rendering:optimizeQuality; fill-rule:evenodd; clip-rule:evenodd"
   viewBox="0 0 8669.86 8669.86"
   id="svg29"
   sodipodi:docname="error.svg"
   inkscape:version="1.1 (c68e22c387, 2021-05-23)"
   xmlns:inkscape="http://www.inkscape.org/namespaces/inkscape"
   xmlns:sodipodi="http://sodipodi.sourceforge.net/DTD/sodipodi-0.dtd"
   xmlns="http://www.w3.org/2000/svg"
   xmlns:svg="http://www.w3.org/2000/svg"><sodipodi:namedview
   id="namedview31"
   pagecolor="#505050"
   bordercolor="#ffffff"
   borderopacity="1"
   inkscape:pageshadow="0"
   inkscape:pageopacity="0"
   inkscape:pagecheckerboard="1"
   inkscape:document-units="mm"
   showgrid="false"
   inkscape:zoom="1.6896516"
   inkscape:cx="140.56152"
   inkscape:cy="199.15348"
   inkscape:window-width="1920"
   inkscape:window-height="1001"
   inkscape:window-x="-9"
   inkscape:window-y="-9"
   inkscape:window-maximized="1"
   inkscape:current-layer="g755" />
 <defs
   id="defs23">
  <style
   type="text/css"
   id="style21">
   <![CDATA[
    .fil0 {fill:#282829}
   ]]>
  </style>
 </defs>
 <g
   id="Layer_x0020_1"
   inkscape:label="Layer 1">
  <metadata
   id="CorelCorpID_0Corel-Layer" />
  <g
   id="g755"><path
     id="path26"
     style="stroke-width:0.0377953"
     class="fil0"
     d="M 75.839844 51.839844 C 71.439718 51.839844 67.839844 55.439718 67.839844 59.839844 L 67.839844 267.83984 C 67.839844 272.23997 71.439718 275.83984 75.839844 275.83984 L 251.83984 275.83984 C 256.23997 275.83984 259.83984 272.23997 259.83984 267.83984 L 259.83984 59.839844 C 259.83984 55.439718 256.23997 51.839844 251.83984 51.839844 L 75.839844 51.839844 z M 84.640625 68.800781 L 199.83984 68.800781 L 199.83984 81.279297 L 84.640625 81.279297 L 84.640625 68.800781 z M 84.640625 97.519531 L 228 97.519531 L 228 110 L 84.640625 110 L 84.640625 97.519531 z M 84.640625 126.24023 L 189.91992 126.24023 L 189.91992 138.71875 L 84.640625 138.71875 L 84.640625 126.24023 z M 184.81641 155.3125 L 215.18555 207.73438 L 245.55078 260.15625 L 184.81641 260.15625 L 124.07812 260.15625 L 154.44727 207.73438 L 184.81641 155.3125 z M 179.78906 187.2793 L 179.78906 232.36133 L 189.8418 232.36133 L 189.8418 187.2793 L 179.78906 187.2793 z M 179.78906 237.62891 L 179.78906 247.65039 L 189.8418 247.65039 L 189.8418 237.62891 L 179.78906 237.62891 z "
     transform="scale(26.458333)" /></g>
 </g>
</svg>
