<?xml version="1.0" encoding="UTF-8"?>
<!DOCTYPE svg PUBLIC "-//W3C//DTD SVG 1.1//EN" "http://www.w3.org/Graphics/SVG/1.1/DTD/svg11.dtd">
<!-- Creator: CorelDRAW 2020 (64-Bit) -->
<svg xmlns="http://www.w3.org/2000/svg" xml:space="preserve" width="86.6986mm" height="86.6986mm" version="1.1" style="shape-rendering:geometricPrecision; text-rendering:geometricPrecision; image-rendering:optimizeQuality; fill-rule:evenodd; clip-rule:evenodd"
viewBox="0 0 8669.86 8669.86"
 xmlns:xlink="http://www.w3.org/1999/xlink"
 xmlns:xodm="http://www.corel.com/coreldraw/odm/2003">
 <defs>
  <style type="text/css">
   <![CDATA[
    .fil0 {fill:#282829}
   ]]>
  </style>
 </defs>
 <g id="Layer_x0020_1">
  <metadata id="CorelCorpID_0Corel-Layer"/>
  <path class="fil0" d="M2006.59 1371.6l4656.68 0c116.42,0 211.66,95.24 211.66,211.66l0 5503.35c0,116.42 -95.24,211.66 -211.66,211.66l-4656.68 0c-116.42,0 -211.66,-95.24 -211.66,-211.66l0 -5503.35c0,-116.42 95.24,-211.66 211.66,-211.66zm353.49 554.55l1535.98 0 0 592.67 -658.28 0 0 547.16 329.14 0 0 -211.67 1535.99 0 0 592.67 -1535.99 0 0 -211.66 -329.14 0 0 758.81 329.14 0 0 -211.67 1535.99 0 0 592.67 -1535.99 0 0 -211.66 -329.14 0 0 758.81 1535.99 0 0 -211.67 1536 0 0 592.67 -1536 0 0 -211.66 -1535.99 0 0 758.84 329.14 0 0 -211.67 1535.99 0 0 592.67 -1535.99 0 0 -211.66 -548.57 0 0 -42.34 0 -127 0 -1686.99 0 -169.34 0 -758.81 0 -169.34 0 -547.16 -658.27 0 0 -592.67z"/>
 </g>
</svg>
