<?xml version="1.0" encoding="UTF-8"?>
<!DOCTYPE svg PUBLIC "-//W3C//DTD SVG 1.1//EN" "http://www.w3.org/Graphics/SVG/1.1/DTD/svg11.dtd">
<!-- Creator: CorelDRAW 2020 (64-Bit) -->
<svg xmlns="http://www.w3.org/2000/svg" xml:space="preserve" width="86.6986mm" height="86.6986mm" version="1.1" style="shape-rendering:geometricPrecision; text-rendering:geometricPrecision; image-rendering:optimizeQuality; fill-rule:evenodd; clip-rule:evenodd"
viewBox="0 0 8669.86 8669.86"
 xmlns:xlink="http://www.w3.org/1999/xlink"
 xmlns:xodm="http://www.corel.com/coreldraw/odm/2003">
 <defs>
  <style type="text/css">
   <![CDATA[
    .fil0 {fill:#282829}
   ]]>
  </style>
 </defs>
 <g id="Layer_x0020_1">
  <metadata id="CorelCorpID_0Corel-Layer"/>
  <path class="fil0" d="M2006.59 1371.6l4656.68 0c116.42,0 211.66,95.24 211.66,211.66l0 5503.35c0,116.42 -95.24,211.66 -211.66,211.66l-4656.68 0c-116.42,0 -211.66,-95.24 -211.66,-211.66l0 -5503.35c0,-116.42 95.24,-211.66 211.66,-211.66zm232.84 1208.61l3793.07 0 0 330.2 -3793.07 0 0 -330.2zm0 1519.77l3572.94 0 0 330.2 -3572.94 0 0 -330.2zm0 -759.89l2785.53 0 0 330.2 -2785.53 0 0 -330.2zm0 -1519.76l3048 0 0 330.2 -3048 0 0 -330.2zm2189.1 5029.2l-228.72 0 0 -1054 -402.16 0 0 -190.6 1032.08 0 0 190.6 -401.2 0 0 1054zm1496.82 -870.71c0,86.72 -24.14,160.1 -72.11,220.77 -47.97,60.36 -122.3,105.15 -223,134.38l0 3.49 373.25 512.07 -274.46 0 -338.94 -482.21 -156.61 0 0 482.21 -228.71 0 0 -1244.6 378.33 0c62.9,0 121.03,3.5 175.03,10.8 54,6.99 100.07,17.79 138.5,32.09 73.06,27.63 129.61,69.25 169.32,123.88 39.7,54.96 59.4,123.89 59.4,207.12zm-579.73 197.9c52.09,0 96.25,-2.22 132.46,-6.99 36.21,-4.76 66.39,-11.75 91.17,-20.96 45.74,-17.16 77.51,-40.98 95.3,-71.16 17.47,-29.86 26.36,-64.48 26.36,-103.56 0,-33.35 -6.98,-63.21 -20.96,-88.94 -13.98,-25.73 -37.48,-45.74 -70.84,-60.67 -21.6,-10.17 -48.92,-17.16 -81.64,-21.92 -32.72,-4.77 -73.38,-6.99 -121.66,-6.99l-162.33 0 0 381.19 112.14 0zm856.1 672.81l0 -1244.6 228.71 0 0 1244.6 -228.71 0z"/>
 </g>
</svg>
