<?xml version="1.0" encoding="UTF-8"?>
<!DOCTYPE svg PUBLIC "-//W3C//DTD SVG 1.1//EN" "http://www.w3.org/Graphics/SVG/1.1/DTD/svg11.dtd">
<!-- Creator: CorelDRAW 2020 (64-Bit) -->
<svg xmlns="http://www.w3.org/2000/svg" xml:space="preserve" width="86.6986mm" height="86.6986mm" version="1.1" style="shape-rendering:geometricPrecision; text-rendering:geometricPrecision; image-rendering:optimizeQuality; fill-rule:evenodd; clip-rule:evenodd"
viewBox="0 0 8669.86 8669.86"
 xmlns:xlink="http://www.w3.org/1999/xlink"
 xmlns:xodm="http://www.corel.com/coreldraw/odm/2003">
 <defs>
  <style type="text/css">
   <![CDATA[
    .fil0 {fill:#282829}
   ]]>
  </style>
 </defs>
 <g id="Layer_x0020_1">
  <metadata id="CorelCorpID_0Corel-Layer"/>
  <path class="fil0" d="M2006.59 1371.6l4656.68 0c116.42,0 211.66,95.24 211.66,211.66l0 5503.35c0,116.42 -95.24,211.66 -211.66,211.66l-4656.68 0c-116.42,0 -211.66,-95.24 -211.66,-211.66l0 -5503.35c0,-116.42 95.24,-211.66 211.66,-211.66zm1517.01 5251.45l1300.29 0 0 209.55 -1300.29 0 0 -209.55zm-1277.41 -1330.8l692.02 700.26 -698.78 707.14 102.62 98.15c39.94,38.73 -9.8,12.77 45.53,34.8l840.18 -832.23 -836.19 -844.17 -145.38 136.05zm-6.76 -2712.04l3793.07 0 0 330.2 -3793.07 0 0 -330.2zm0 1519.77l3572.94 0 0 330.2 -3572.94 0 0 -330.2zm0 -759.89l2785.53 0 0 330.2 -2785.53 0 0 -330.2zm0 -1519.76l3048 0 0 330.2 -3048 0 0 -330.2z"/>
 </g>
</svg>
