<?xml version="1.0" encoding="UTF-8"?>
<!DOCTYPE svg PUBLIC "-//W3C//DTD SVG 1.1//EN" "http://www.w3.org/Graphics/SVG/1.1/DTD/svg11.dtd">
<!-- Creator: CorelDRAW 2020 (64-Bit) -->
<svg xmlns="http://www.w3.org/2000/svg" xml:space="preserve" width="86.6986mm" height="86.6986mm" version="1.1" style="shape-rendering:geometricPrecision; text-rendering:geometricPrecision; image-rendering:optimizeQuality; fill-rule:evenodd; clip-rule:evenodd"
viewBox="0 0 8669.86 8669.86"
 xmlns:xlink="http://www.w3.org/1999/xlink"
 xmlns:xodm="http://www.corel.com/coreldraw/odm/2003">
 <defs>
  <style type="text/css">
   <![CDATA[
    .fil0 {fill:#282829;fill-rule:nonzero}
   ]]>
  </style>
 </defs>
 <g id="Layer_x0020_1">
  <metadata id="CorelCorpID_0Corel-Layer"/>
  <g id="_2419218284304">
   <path class="fil0" d="M6738.26 3761.87l-610.47 -62.36c-22.05,-62.25 -47.4,-123.4 -75.81,-182.97l387.62 -475.79c49.29,-60.5 44.8,-148.48 -10.39,-203.67l-596.4 -596.39c-55.19,-55.19 -143.17,-59.65 -203.67,-10.35l-399.67 325.6c-45.58,37.13 -108.79,45.73 -165.07,22.32l-3.56 -1.47c-55.97,-23.14 -94.46,-73.79 -100.42,-132.28l-52.4 -512.87c-7.95,-77.67 -73.3,-136.7 -151.35,-136.7l-843.44 0c-78.06,0 -143.45,59.03 -151.35,136.7l-52.4 512.87c-5.97,58.49 -44.46,109.14 -100.73,132.4l-3.41 1.39c-56.16,23.34 -119.34,14.73 -164.88,-22.36l-399.7 -325.64c-60.5,-49.26 -148.48,-44.8 -203.67,10.39l-596.41 596.39c-55.19,55.19 -59.68,143.17 -10.38,203.67l325.6 399.71c37.13,45.58 45.73,108.75 22.52,164.64l-1.67 3.95c-23.1,55.97 -73.79,94.45 -132.28,100.42l-512.88 52.4c-77.63,7.91 -136.66,73.29 -136.66,151.35l0 843.43c0,78.05 59.03,143.44 136.66,151.34l512.92 52.4c58.45,5.97 109.14,44.46 132.28,100.54l1.51 3.6c23.34,56.12 14.73,119.3 -22.4,164.88l-325.6 399.7c-49.3,60.5 -44.81,148.48 10.38,203.67l596.41 596.39c55.19,55.19 143.13,59.65 203.67,10.39l399.67 -325.64c45.57,-37.13 108.75,-45.69 164.87,-22.4l3.76 1.55c55.96,23.14 94.45,73.79 100.42,132.28l52.36 512.87c7.94,77.63 73.33,136.7 151.35,136.7l843.48 0c78.02,0 143.4,-59.07 151.35,-136.7l52.36 -512.87c5.97,-58.49 44.45,-109.14 100.53,-132.32l3.65 -1.47c56.12,-23.37 119.29,-14.77 164.87,22.36l399.67 325.64c60.5,49.26 148.52,44.8 203.67,-10.39l596.44 -596.39c55.15,-55.19 59.65,-143.17 10.35,-203.67l-325.6 -399.71c-37.13,-45.58 -45.7,-108.75 -22.33,-165.06l1.47 -3.53c23.14,-55.97 73.8,-94.45 132.29,-100.42l512.87 -52.4c77.63,-7.91 136.66,-73.29 136.66,-151.35l0 -843.43c0.04,-78.05 -59.03,-143.44 -136.66,-151.34l0 0zm-2403.27 1788.6c-670.24,0 -1215.52,-545.27 -1215.52,-1215.5 0,-670.23 545.28,-1215.54 1215.52,-1215.54 670.23,0 1215.51,545.31 1215.51,1215.54 0,670.23 -545.28,1215.5 -1215.51,1215.5zm0 0z"/>
   <path class="fil0" d="M4334.99 3423.71c-502.46,0 -911.27,408.81 -911.27,911.26 0,502.45 408.81,911.26 911.27,911.26 502.45,0 911.22,-408.81 911.22,-911.26 0,-502.45 -408.77,-911.26 -911.22,-911.26zm535.35 745.26l-547.14 547.13c-29.72,29.69 -68.63,44.58 -107.59,44.58 -38.91,0 -77.86,-14.85 -107.55,-44.58l-308.43 -308.42c-59.42,-59.42 -59.42,-155.73 0,-215.15 59.41,-59.41 155.73,-59.41 215.14,0l200.88 200.84 439.55 -439.54c59.41,-59.41 155.73,-59.41 215.14,0 59.42,59.42 59.42,155.73 0,215.14l0 0zm0 0z"/>
  </g>
 </g>
</svg>
