<?xml version="1.0" encoding="UTF-8"?>
<!DOCTYPE svg PUBLIC "-//W3C//DTD SVG 1.1//EN" "http://www.w3.org/Graphics/SVG/1.1/DTD/svg11.dtd">
<!-- Creator: CorelDRAW 2020 (64-Bit) -->
<svg xmlns="http://www.w3.org/2000/svg" xml:space="preserve" width="86.6986mm" height="86.6986mm" version="1.1" style="shape-rendering:geometricPrecision; text-rendering:geometricPrecision; image-rendering:optimizeQuality; fill-rule:evenodd; clip-rule:evenodd"
viewBox="0 0 8669.86 8669.86"
 xmlns:xlink="http://www.w3.org/1999/xlink"
 xmlns:xodm="http://www.corel.com/coreldraw/odm/2003">
 <defs>
  <style type="text/css">
   <![CDATA[
    .fil0 {fill:#282829}
   ]]>
  </style>
 </defs>
 <g id="Layer_x0020_1">
  <metadata id="CorelCorpID_0Corel-Layer"/>
  <path class="fil0" d="M2006.59 1371.6l4656.68 0c116.42,0 211.66,95.24 211.66,211.66l0 5503.35c0,116.42 -95.24,211.66 -211.66,211.66l-4656.68 0c-116.42,0 -211.66,-95.24 -211.66,-211.66l0 -5503.35c0,-116.42 95.24,-211.66 211.66,-211.66zm3375.03 4085.24l1139.67 1139.67 -320.75 320.75 -1139.67 -1139.67c-355.8,212.71 -823.52,165.88 -1129.97,-140.57 -361.78,-361.79 -361.78,-948.36 0,-1310.15 361.79,-361.78 948.36,-361.78 1310.15,0 306.45,306.45 353.28,774.17 140.57,1129.97zm-1236.22 -915.47c243.32,-243.31 637.83,-243.31 881.14,0 243.32,243.32 243.32,637.83 0,881.14 -243.31,243.32 -637.82,243.32 -881.14,0 -243.31,-243.31 -243.31,-637.82 0,-881.14zm-1905.97 -1961.16l3793.07 0 0 330.2 -3793.07 0 0 -330.2zm0 759.88l2785.53 0 0 330.2 -2785.53 0 0 -330.2zm0 -1519.76l3048 0 0 330.2 -3048 0 0 -330.2z"/>
 </g>
</svg>
