<?xml version="1.0" encoding="UTF-8"?>
<!DOCTYPE svg PUBLIC "-//W3C//DTD SVG 1.1//EN" "http://www.w3.org/Graphics/SVG/1.1/DTD/svg11.dtd">
<!-- Creator: CorelDRAW 2020 (64-Bit) -->
<svg xmlns="http://www.w3.org/2000/svg" xml:space="preserve" width="86.6986mm" height="86.6986mm" version="1.1" style="shape-rendering:geometricPrecision; text-rendering:geometricPrecision; image-rendering:optimizeQuality; fill-rule:evenodd; clip-rule:evenodd"
viewBox="0 0 8669.86 8669.86"
 xmlns:xlink="http://www.w3.org/1999/xlink"
 xmlns:xodm="http://www.corel.com/coreldraw/odm/2003">
 <defs>
  <style type="text/css">
   <![CDATA[
    .fil0 {fill:#282829}
   ]]>
  </style>
 </defs>
 <g id="Layer_x0020_1">
  <metadata id="CorelCorpID_0Corel-Layer"/>
  <path class="fil0" d="M2006.59 1371.6l4656.68 0c116.42,0 211.66,95.24 211.66,211.66l0 5503.35c0,116.42 -95.24,211.66 -211.66,211.66l-4656.68 0c-116.42,0 -211.66,-95.24 -211.66,-211.66l0 -5503.35c0,-116.42 95.24,-211.66 211.66,-211.66zm232.84 1208.61l3793.07 0 0 330.2 -3793.07 0 0 -330.2zm0 1519.77l3572.94 0 0 330.2 -3572.94 0 0 -330.2zm0 -759.89l2785.53 0 0 330.2 -2785.53 0 0 -330.2zm0 -1519.76l3048 0 0 330.2 -3048 0 0 -330.2zm1186.88 5029.2l-228.72 0 0 -1054 -402.16 0 0 -190.6 1032.08 0 0 190.6 -401.2 0 0 1054zm1188.05 -316.39l-471.41 0 -120.71 316.39 -243.01 0 494.28 -1244.6 208.38 0 494.29 1244.6 -241.11 0 -120.71 -316.39zm-237.61 -628.97c-44.47,129.6 -83.86,238.25 -118.17,325.6l-42.25 112.77 324.65 0 -42.25 -112.45c-34.31,-87.99 -73.7,-196.63 -118.17,-325.92l-3.81 0zm1416.45 611.5c27.32,-98.16 60.99,-203.31 101.34,-315.44l215.05 -595.3 320.21 0 0 1244.6 -228.72 0 0 -630.56c0,-92.44 3.81,-199.81 11.12,-322.11l-8.26 0c-10.48,35.58 -22.87,75.29 -37.17,119.13 -14.29,44.15 -29.22,87.67 -44.79,130.24l-257.3 703.3 -146.76 0 -257.31 -703.3c-15.57,-42.57 -30.5,-86.09 -44.79,-130.24 -14.3,-43.84 -26.68,-83.55 -37.17,-119.13l-8.26 0c7.31,115 11.12,221.73 11.12,321.16l0 631.51 -228.71 0 0 -1244.6 318.29 0 215.06 592.44c35.9,98.79 69.89,204.89 101.33,318.3l5.72 0z"/>
 </g>
</svg>
